
        <svg xmlns="http://www.w3.org/2000/svg" xmlns:xlink="http://www.w3.org/1999/xlink" version="1.1" width="3131.578947368421" 
        height="717.1052631578947" viewBox="0 0 3131.578947368421 717.1052631578947">
			
			<g transform="scale(6.578947368421052) translate(10, 10)">
				<defs id="SvgjsDefs1267"></defs><g id="SvgjsG1268" featureKey="rootContainer" transform="matrix(1,0,0,1,0,0)" fill="#222831"><rect xmlns="http://www.w3.org/2000/svg" width="456" height="89" rx="10" ry="10"></rect></g><g id="SvgjsG1269" featureKey="nameLeftFeature-0" transform="matrix(0.9971223234390372,0,0,0.9971223234390372,16.25082007337852,17.79810066589034)" fill="#ffffff"><path d="M18.84 20.44 c0 1.56 -0.24 2.92 -0.8 3.92 c1.52 1.44 2.16 3.76 2.16 7 c0 3.44 -0.72 5.88 -2.36 7.16 c-1.56 1.24 -3.76 1.48 -5.96 1.48 l-7.8 0 c-0.2 0 -0.32 -0.16 -0.32 -0.36 l0 -25.68 c0 -0.2 0.12 -0.36 0.32 -0.36 l6.4 0 c2.16 0 4.4 0.16 5.92 1.16 c1.88 1.2 2.44 3.36 2.44 5.68 z M9.04 18.84 l0 3.6 l2.44 0 c1.28 0 1.96 -0.4 1.96 -1.8 s-1.04 -1.8 -2.8 -1.8 l-1.6 0 z M10.56 34.76 c2.2 0 4.28 -0.96 4.28 -3.52 c0 -1.92 -1.36 -3.44 -3.4 -3.44 l-2.4 0 l0 6.96 l1.52 0 z M6.08 16.12 l0 21.32 c0 0.2 0.16 0.28 0.32 0.28 l5.36 0 c3.88 0 6.2 -1.96 6.2 -6.16 c0 -3 -0.68 -6.12 -3.8 -7 c1.84 -0.6 2.32 -2.44 2.32 -4.4 c0 -3.2 -1.8 -4.36 -5.04 -4.36 l-5.04 0 c-0.24 0 -0.32 0.12 -0.32 0.32 z M11.16 37.24 l-4.56 0 l0 -12.32 l5.64 0 c4.12 0 5.16 2.68 5.16 6.64 c0 4.04 -2.2 5.84 -6.24 5.68 z M16 20.16 c0 3.24 -1.36 4.24 -4.64 4.24 l-4.76 0 l0 -8.08 l4.84 0 c2.36 0 4.56 0.44 4.56 3.84 z M36.189 13.239999999999998 c3.44 0 5.84 0.76 7.36 2.4 c1.2 1.32 1.76 3.2 1.76 5.88 l0 10.52 c0 2.76 -0.56 4.68 -1.76 5.96 c-1.56 1.6 -3.92 2.4 -7.36 2.4 c-3.56 0 -5.88 -0.8 -7.4 -2.4 c-1.16 -1.28 -1.8 -3.2 -1.8 -5.96 l0 -10.52 c0 -2.68 0.64 -4.56 1.8 -5.92 c1.56 -1.6 3.92 -2.36 7.4 -2.36 z M39.989 30.84 l0 -8 c0 -3.52 -1.88 -4.24 -3.6 -4.24 l-0.48 0 c-2.56 0 -3.56 1.64 -3.56 4.24 l0 8 c0 3.52 1.88 4.28 3.56 4.28 l0.48 0 c2.56 0 3.56 -1.72 3.6 -4.28 z M29.509 21.8 l0 9.92 c0 1.88 0.48 3.44 1.6 4.6 c1.04 1.04 2.64 1.6 4.6 1.6 l1.04 0 c3.76 0 6.2 -2.4 6.2 -6.2 l0 -9.92 c0 -4.08 -2.16 -6.28 -6.2 -6.28 l-1.04 0 c-4.08 0 -6.2 2.2 -6.2 6.28 z M36.748999999999995 37.4 l-1.04 0 c-1.88 0 -3.28 -0.48 -4.28 -1.48 s-1.52 -2.4 -1.52 -4.2 l0 -9.92 c0 -3.8 2.04 -5.8 5.8 -5.8 l1.04 0 c3.8 0 5.68 1.96 5.68 5.8 l0 9.92 c0 1.68 -0.52 3.2 -1.6 4.24 c-1.04 0.88 -2.44 1.44 -4.08 1.44 z M61.738 13.239999999999998 c3.44 0 5.84 0.76 7.36 2.4 c1.2 1.32 1.76 3.2 1.76 5.88 l0 10.52 c0 2.76 -0.56 4.68 -1.76 5.96 c-1.56 1.6 -3.92 2.4 -7.36 2.4 c-3.56 0 -5.88 -0.8 -7.4 -2.4 c-1.16 -1.28 -1.8 -3.2 -1.8 -5.96 l0 -10.52 c0 -2.68 0.64 -4.56 1.8 -5.92 c1.56 -1.6 3.92 -2.36 7.4 -2.36 z M65.538 30.84 l0 -8 c0 -3.52 -1.88 -4.24 -3.6 -4.24 l-0.48 0 c-2.56 0 -3.56 1.64 -3.56 4.24 l0 8 c0 3.52 1.88 4.28 3.56 4.28 l0.48 0 c2.56 0 3.56 -1.72 3.6 -4.28 z M55.058 21.8 l0 9.92 c0 1.88 0.48 3.44 1.6 4.6 c1.04 1.04 2.64 1.6 4.6 1.6 l1.04 0 c3.76 0 6.2 -2.4 6.2 -6.2 l0 -9.92 c0 -4.08 -2.16 -6.28 -6.2 -6.28 l-1.04 0 c-4.08 0 -6.2 2.2 -6.2 6.28 z M62.298 37.4 l-1.04 0 c-1.88 0 -3.28 -0.48 -4.28 -1.48 s-1.52 -2.4 -1.52 -4.2 l0 -9.92 c0 -3.8 2.04 -5.8 5.8 -5.8 l1.04 0 c3.8 0 5.68 1.96 5.68 5.8 l0 9.92 c0 1.68 -0.52 3.2 -1.6 4.24 c-1.04 0.88 -2.44 1.44 -4.08 1.44 z M95.40700000000001 13.600000000000001 c0.28 0 0.44 0.32 0.28 0.56 l-6.28 8.68 l6.64 16.72 c0.08 0.2 -0.04 0.44 -0.32 0.44 l-5.4 0 c-0.12 0 -0.24 -0.08 -0.28 -0.24 l-4.16 -11.96 l-2.04 2.8 l0 9.04 c0 0.2 -0.16 0.36 -0.36 0.36 l-4.56 0 c-0.2 0 -0.32 -0.16 -0.32 -0.36 l0 -25.68 c0 -0.2 0.12 -0.36 0.32 -0.36 l4.56 0 c0.2 0 0.36 0.16 0.36 0.36 l0 8.28 l6.28 -8.48 c0.12 -0.16 0.16 -0.16 0.32 -0.16 l4.96 0 z M81.007 16 l0 21.56 c0 0.28 0.44 0.28 0.44 0 l0 -7.76 l5 -6.64 l5.6 14.48 c0.08 0.2 0.56 0.08 0.44 -0.24 l-5.68 -14.76 l5.2 -6.92 c0.2 -0.2 -0.16 -0.56 -0.4 -0.32 l-10.16 13.6 l0 -13 c0 -0.28 -0.44 -0.28 -0.44 0 z"></path></g><g id="SvgjsG1270" featureKey="inlineSymbolFeature-0" transform="matrix(0.6404849446041517,0,0,0.6404849446041517,130.71838951956545,12.407691408024238)" fill="#ffffff"><path xmlns="http://www.w3.org/2000/svg" d="M94.168,11.854H50.287h-1.495H4.911c-1.563,0-2.91,1.189-2.91,2.752V68.7v0.188V73.9v0.313c0,1.563,1.347,2.877,2.91,2.877  h35.146c-0.041,0.896-0.321,4.756-2.155,6.623c-1.445,1.475-3.453,2.854-2.669,3.563c0.19,0.436,1.091,0.688,3.14,0.688  c4.521,0,9.416,0,11.208,0c0.453,0,0.707,0,0.707,0c1.792,0,6.688,0,11.208,0c2.334,0,3.15-0.383,3.158-0.952h-0.08v-0.189H64.49  c-0.105-0.77-1.662-1.907-2.84-3.106c-1.834-1.868-2.113-5.725-2.154-6.622H94.17c1.564,0,2.83-1.314,2.83-2.878v-0.313v-5.012  v-0.188V14.607C97,13.042,95.73,11.854,94.168,11.854z M49.5,74.35c-1.021,0-1.847-0.824-1.847-1.846  c0-1.02,0.826-1.846,1.847-1.846c1.02,0,1.846,0.826,1.846,1.846C51.348,73.525,50.52,74.35,49.5,74.35z M92.994,64.695H6.007V15.67  h86.987V64.695z"></path><g xmlns="http://www.w3.org/2000/svg"><g><path d="M19.778,33.744h3.29v6.038h0.043c0.347-0.455,0.78-0.801,1.299-1.082c0.476-0.26,1.103-0.412,1.709-0.412    c2.1,0,3.701,1.45,3.701,4.632v6.189h-3.29v-5.822c0-1.385-0.476-2.338-1.709-2.338c-0.866,0-1.407,0.563-1.645,1.147    c-0.087,0.217-0.109,0.499-0.109,0.736v6.276h-3.29L19.778,33.744L19.778,33.744z"></path><path d="M36.007,35.497v3.03h2.359v2.424h-2.359v3.831c0,1.277,0.303,1.861,1.299,1.861c0.411,0,0.735-0.043,0.974-0.086    l0.021,2.489c-0.433,0.173-1.212,0.282-2.143,0.282c-1.061,0-1.948-0.368-2.467-0.909c-0.606-0.627-0.909-1.645-0.909-3.138V40.95    h-1.407v-2.424h1.407v-2.294L36.007,35.497z"></path><path d="M43.948,35.497v3.03h2.359v2.424h-2.359v3.831c0,1.277,0.303,1.861,1.299,1.861c0.411,0,0.735-0.043,0.974-0.086    l0.022,2.489c-0.433,0.173-1.212,0.282-2.143,0.282c-1.061,0-1.947-0.368-2.467-0.909c-0.606-0.627-0.909-1.645-0.909-3.138V40.95    h-1.407v-2.424h1.407v-2.294L43.948,35.497z"></path><path d="M48.209,42.076c0-1.385-0.043-2.576-0.086-3.55h2.855l0.151,1.472h0.043c0.779-1.126,1.992-1.71,3.528-1.71    c2.314,0,4.395,2.013,4.395,5.389c0,3.853-2.445,5.671-4.806,5.671c-1.276,0-2.272-0.519-2.749-1.212h-0.044v5.258h-3.289    L48.209,42.076L48.209,42.076z M51.498,44.565c0,0.26,0.021,0.498,0.066,0.692c0.215,0.888,0.973,1.558,1.926,1.558    c1.428,0,2.271-1.19,2.271-2.987c0-1.688-0.759-2.964-2.229-2.964c-0.933,0-1.755,0.692-1.97,1.666    c-0.045,0.173-0.065,0.39-0.065,0.585L51.498,44.565L51.498,44.565z"></path><path d="M60.91,40.388c0-1.169,0.8-1.991,1.947-1.991c1.146,0,1.904,0.801,1.926,1.991c0,1.125-0.779,1.97-1.947,1.97    C61.71,42.357,60.91,41.513,60.91,40.388z M60.91,47.378c0-1.147,0.8-1.991,1.947-1.991c1.146,0,1.904,0.822,1.926,1.991    c0,1.126-0.779,1.97-1.947,1.97C61.71,49.348,60.91,48.504,60.91,47.378z"></path><path d="M65.799,49.976l4.631-15.691h2.188l-4.634,15.691H65.799z"></path><path d="M72.961,49.976l4.631-15.691h2.188l-4.633,15.691H72.961z"></path></g></g></g><g id="SvgjsG1271" featureKey="nameRightFeature-0" transform="matrix(1.0258272187805666,0,0,1.0258272187805666,193.02816806182693,17.048751389872407)" fill="#ffffff"><path d="M34.469 29.560000000000002 c-0.56 1.16 -1.36 2.04 -2.48 2.56 l3.36 7.4 c0.12 0.24 -0.04 0.48 -0.28 0.48 l-4.92 0 c-0.16 0 -0.24 -0.08 -0.28 -0.2 l-3.12 -6.8 l-2.04 0 l0 6.64 c0 0.2 -0.16 0.36 -0.36 0.36 l-4.6 0 c-0.16 0 -0.28 -0.16 -0.28 -0.36 l0 -25.68 c0 -0.2 0.12 -0.36 0.28 -0.36 l8.32 0 c4.44 0 7.12 2.52 7.12 7.2 l0 5.04 c0 1.4 -0.24 2.72 -0.72 3.72 z M29.949 24.6 l0 -2.6 c0 -2.8 -1.04 -3.08 -4.08 -3.08 l-1.16 0 l0 8.84 l1.16 0 c2.52 0 4 -0.04 4.08 -3.16 z M22.389000000000003 37.56 l0 -6.84 l5.76 0 l3.36 6.92 c0.08 0.2 0.56 0.12 0.44 -0.24 l-3.36 -6.8 c3.12 -0.44 4.2 -2.08 4.2 -5.04 l0 -5 c0 -4.4 -4 -4.76 -5.24 -4.76 l-5.4 0 c-0.08 0 -0.24 0.12 -0.24 0.24 l0 21.52 c0 0.28 0.48 0.28 0.48 0 z M32.309000000000005 20.56 l0 5 c0 4.08 -2.6 4.64 -5.12 4.64 l-4.8 0 l0 -13.88 l5.16 0 c4.32 0 4.76 2.92 4.76 4.24 z M43.338 40 c-0.2 0 -0.32 -0.16 -0.32 -0.36 l0 -25.68 c0 -0.2 0.12 -0.36 0.32 -0.36 l13.6 0 c0.2 0 0.36 0.16 0.36 0.36 l0 4.28 c0 0.2 -0.16 0.36 -0.36 0.36 l-8.64 0 l0 5.44 l6.72 0 c0.2 0 0.32 0.16 0.32 0.36 l0 4.36 c0 0.2 -0.12 0.36 -0.32 0.36 l-6.72 0 l0 5.88 l8.64 0 c0.2 0 0.36 0.16 0.36 0.36 l0 4.28 c0 0.2 -0.16 0.36 -0.36 0.36 l-13.6 0 z M45.338 16.12 l0 21.28 c0 0.24 0.16 0.32 0.32 0.32 l9.2 0 c0.36 0 0.28 -0.48 0 -0.48 l-9 0 l0 -10.44 l7.36 0 c0.24 0 0.24 -0.56 0 -0.56 l-7.36 0 l0 -9.92 l9 0 c0.28 0 0.36 -0.52 0 -0.52 l-9.2 0 c-0.16 0 -0.32 0.12 -0.32 0.32 z M68.207 13.84 l4.4 16.56 l4.52 -16.56 c0.08 -0.12 0.16 -0.24 0.32 -0.24 l4.56 0 c0.24 0 0.4 0.2 0.32 0.44 l-6.92 25.72 c-0.08 0.16 -0.16 0.24 -0.32 0.24 l-4.96 0 c-0.12 0 -0.24 -0.08 -0.28 -0.24 l-6.92 -25.72 c-0.04 -0.24 0.12 -0.44 0.36 -0.44 l4.6 0 c0.16 0 0.24 0.12 0.32 0.24 z M72.527 37.24 l-6.68 -21.32 c-0.12 -0.32 -0.56 -0.12 -0.44 0.12 l6.64 21.36 c0.16 0.6 0.8 0.64 1 0 l6.4 -21.36 c0.08 -0.24 -0.36 -0.4 -0.44 -0.12 z M88.956 40 c-0.2 0 -0.32 -0.16 -0.32 -0.36 l0 -25.68 c0 -0.2 0.12 -0.36 0.32 -0.36 l4.56 0 c0.2 0 0.36 0.16 0.36 0.36 l0 25.68 c0 0.2 -0.16 0.36 -0.36 0.36 l-4.56 0 z M91.036 16 l0 21.56 c0 0.36 0.44 0.36 0.44 0 l0 -21.56 c0 -0.28 -0.44 -0.28 -0.44 0 z M102.305 40 c-0.2 0 -0.32 -0.16 -0.32 -0.36 l0 -25.68 c0 -0.2 0.12 -0.36 0.32 -0.36 l13.6 0 c0.2 0 0.36 0.16 0.36 0.36 l0 4.28 c0 0.2 -0.16 0.36 -0.36 0.36 l-8.64 0 l0 5.44 l6.72 0 c0.2 0 0.32 0.16 0.32 0.36 l0 4.36 c0 0.2 -0.12 0.36 -0.32 0.36 l-6.72 0 l0 5.88 l8.64 0 c0.2 0 0.36 0.16 0.36 0.36 l0 4.28 c0 0.2 -0.16 0.36 -0.36 0.36 l-13.6 0 z M104.305 16.12 l0 21.28 c0 0.24 0.16 0.32 0.32 0.32 l9.2 0 c0.36 0 0.28 -0.48 0 -0.48 l-9 0 l0 -10.44 l7.36 0 c0.24 0 0.24 -0.56 0 -0.56 l-7.36 0 l0 -9.92 l9 0 c0.28 0 0.36 -0.52 0 -0.52 l-9.2 0 c-0.16 0 -0.32 0.12 -0.32 0.32 z M152.174 13.600000000000001 c0.24 0 0.4 0.2 0.32 0.44 l-6.88 25.72 c-0.04 0.16 -0.2 0.24 -0.36 0.24 l-4.4 0 c-0.16 0 -0.28 -0.08 -0.36 -0.24 l-2.72 -10.12 l-3.68 10.16 c-0.04 0.12 -0.12 0.2 -0.28 0.2 l-4.24 0 c-0.16 0 -0.28 -0.08 -0.32 -0.24 l-6.84 -25.76 c-0.04 -0.2 0.08 -0.4 0.36 -0.4 l4.6 0 c0.12 0 0.24 0.12 0.28 0.24 l4.44 16.96 l3.32 -10.04 l-1.84 -6.72 c-0.08 -0.24 0.12 -0.44 0.32 -0.44 l4.96 0 c0.16 0 0.24 0.04 0.32 0.24 l3.68 16.32 l4.4 -16.32 c0.04 -0.12 0.16 -0.24 0.32 -0.24 l4.6 0 z M138.094 21.16 l-6.04 16.08 l-6.48 -21.32 c-0.08 -0.28 -0.56 -0.16 -0.48 0.12 l6.48 21.36 c0.12 0.56 0.8 0.52 1 0 l5.72 -15.44 l4.2 15.4 c0.16 0.6 0.88 0.6 1 0.04 l6.36 -21.36 c0.12 -0.28 -0.4 -0.44 -0.48 -0.12 l-6.32 21.32 l-5.84 -21.32 c-0.04 -0.28 -0.56 -0.2 -0.44 0.12 z M180.192 13.84 c0.04 -0.12 0.12 -0.24 0.28 -0.24 l4.96 0 c0.16 0 0.24 0.12 0.28 0.24 l6.92 25.72 c0.04 0.24 -0.12 0.44 -0.36 0.44 l-4.56 0 c-0.12 0 -0.24 -0.08 -0.28 -0.24 l-1.56 -5.6 l-5.84 0 l-1.52 5.6 c-0.04 0.16 -0.12 0.24 -0.28 0.24 l-4.6 0 c-0.24 0 -0.4 -0.2 -0.36 -0.44 z M181.312 29.2 l3.32 0 l-1.72 -6.04 z M187.472 31.560000000000002 l1.84 6 c0.08 0.24 0.52 0.2 0.4 -0.12 l-6.4 -21.28 c-0.12 -0.52 -0.8 -0.56 -0.92 0 l-6.2 21.28 c-0.12 0.28 0.32 0.4 0.44 0.16 l1.76 -6.04 l9.08 0 z M178.51200000000003 31.04 l4.36 -14.72 l4.44 14.72 l-8.8 0 z M207.58100000000002 13.600000000000001 c4.44 0 7.12 2.52 7.12 7.2 l0 5.04 c0 4.28 -2.64 7.16 -7.12 7.16 l-3.36 0 l0 6.64 c0 0.2 -0.16 0.36 -0.36 0.36 l-4.6 0 c-0.16 0 -0.28 -0.16 -0.28 -0.36 l0 -25.68 c0 -0.2 0.12 -0.36 0.28 -0.36 l8.32 0 z M209.461 24.64 l0 -2.64 c0 -2.76 -1.28 -3.04 -4.08 -3.04 l-1.16 0 l0 8.8 l1.16 0 c2.2 0 4.08 -0.4 4.08 -3.12 z M212.301 25.560000000000002 l0 -5 c0 -4.4 -3.4 -4.76 -5.24 -4.76 l-5.4 0 c-0.08 0 -0.24 0.12 -0.24 0.24 l0 21.52 c0 0.28 0.48 0.28 0.48 0 l0 -6.8 l4.8 0 c3.52 0 5.6 -1.24 5.6 -5.2 z M201.901 16.32 l5.16 0 c4.44 0 4.72 2.92 4.72 4.24 l0 5 c0 4.08 -2.56 4.64 -5.08 4.64 l-4.8 0 l0 -13.88 z M229.69 13.600000000000001 c4.44 0 7.12 2.52 7.12 7.2 l0 5.04 c0 4.28 -2.64 7.16 -7.12 7.16 l-3.36 0 l0 6.64 c0 0.2 -0.16 0.36 -0.36 0.36 l-4.6 0 c-0.16 0 -0.28 -0.16 -0.28 -0.36 l0 -25.68 c0 -0.2 0.12 -0.36 0.28 -0.36 l8.32 0 z M231.57000000000002 24.64 l0 -2.64 c0 -2.76 -1.28 -3.04 -4.08 -3.04 l-1.16 0 l0 8.8 l1.16 0 c2.2 0 4.08 -0.4 4.08 -3.12 z M234.41000000000003 25.560000000000002 l0 -5 c0 -4.4 -3.4 -4.76 -5.24 -4.76 l-5.4 0 c-0.08 0 -0.24 0.12 -0.24 0.24 l0 21.52 c0 0.28 0.48 0.28 0.48 0 l0 -6.8 l4.8 0 c3.52 0 5.6 -1.24 5.6 -5.2 z M224.01000000000002 16.32 l5.16 0 c4.44 0 4.72 2.92 4.72 4.24 l0 5 c0 4.08 -2.56 4.64 -5.08 4.64 l-4.8 0 l0 -13.88 z"></path></g>
			</g>
		</svg>
	